#!OML:ASF H:\Terrain\Patient Classification 1\Terrain2\Thursday\justin.ASF
:FULLY-SPECIFIED
:DEGREES
1357
root 9.88802 17.3682 -17.51 -188.867 -19.5511 -173.795
lowerback 9.93042 2.11476 3.83369
upperback 5.00702 2.66929 3.40741
thorax -0.329376 1.13584 1.10952
lowerneck -11.3494 3.24767 -8.30672
upperneck 41.8892 1.74129 2.03138
head 17.0373 -1.85485 2.24616
rclavicle -6.15239e-014 -3.33958e-014
rhumerus -27.6142 -18.22 -73.2811
rradius 20.4484
rwrist -2.53517
rhand -20.0122 14.8621
rfingers 7.12502
rthumb 6.32806 -15.0234
lclavicle -6.15239e-014 -3.33958e-014
lhumerus -38.0076 15.2985 74.4411
lradius 45.5618
lwrist 7.80603
lhand -20.9375 24.4351
lfingers 7.12502
lthumb 5.43473 54.3454
rfemur -6.72191 0.608802 25.2972
rtibia 31.9508
rfoot -12.8965 -0.108848
rtoes 11.5855
lfemur -9.92293 -8.0657 -1.45842
ltibia 81.0041
lfoot 9.80373 -35.6558
ltoes 31.6568
1358
root 9.89785 17.3575 -17.5662 -188.628 -19.4927 -173.767
lowerback 9.73766 2.10013 4.06253
upperback 4.99894 2.66142 3.35952
thorax -0.218078 1.13975 0.939443
lowerneck -11.5082 3.42644 -8.27504
upperneck 42.1005 1.97132 2.10892
head 17.1765 -1.76295 2.31601
rclavicle -3.69739e-014 -1.19271e-015
rhumerus -26.9241 -19.462 -73.1272
rradius 19.9184
rwrist -1.34827
rhand -19.9743 14.1534
rfingers 7.12502
rthumb 6.36466 -15.731
lclavicle -3.69739e-014 -1.19271e-015
lhumerus -38.1374 16.2506 74.4314
lradius 44.1623
lwrist 7.88101
lhand -21.3761 22.3856
lfingers 7.12502
lthumb 5.01124 52.3064
rfemur -6.97329 0.725321 25.4871
rtibia 32.2469
rfoot -12.4691 -0.341651
rtoes 6.03381
lfemur -10.7386 -8.23073 -1.42952
ltibia 81.8078
lfoot 10.8592 -35.2119
ltoes 30.3907
1359
root 9.91373 17.3569 -17.6168 -188.398 -19.7136 -174.052
lowerback 9.77785 2.10703 3.959
upperback 4.93032 2.68426 3.1936
thorax -0.309514 1.15773 0.820381
lowerneck -11.3694 3.52577 -8.2021
upperneck 42.1817 1.9801 2.31414
head 17.1781 -1.72837 2.39641
rclavicle 3.77691e-014 -1.47101e-014
rhumerus -26.4118 -20.2596 -73.0946
rradius 19.5447
rwrist -0.775682
rhand -19.8564 13.417
rfingers 7.12502
rthumb 6.47841 -16.4639
lclavicle 3.77691e-014 -1.47101e-014
lhumerus -38.2769 16.5414 74.6428
lradius 43.1355
lwrist 7.96202
lhand -20.9324 22.9393
lfingers 7.12502
lthumb 5.43959 52.8495
rfemur -7.11739 0.752248 25.3262
rtibia 32.5742
rfoot -13.4376 -0.563506
rtoes 12.3355
lfemur -11.5181 -8.66611 -1.81755
ltibia 82.583
lfoot 11.6255 -34.4526
ltoes 28.5761
1360
root 9.92914 17.3539 -17.669 -188.306 -19.9413 -174.392
lowerback 9.98794 2.12637 3.73647
upperback 4.82204 2.72714 2.99813
thorax -0.539733 1.18324 0.728503
lowerneck -11.0421 3.58239 -7.89104
upperneck 42.2489 1.8563 2.38658
head 17.1411 -1.73494 2.34664
rclavicle 2.17172e-014 3.97569e-016
rhumerus -26.0396 -20.9242 -73.1015
rradius 19.1138
rwrist -0.06032
rhand -19.6426 12.8064
rfingers 7.12502
rthumb 6.68484 -17.0681
lclavicle 2.17172e-014 3.97569e-016
lhumerus -38.6603 16.3969 74.8546
lradius 42.2811
lwrist 8.18552
lhand -21.3925 24.3246
lfingers 7.12502
lthumb 4.9954 54.2457
rfemur -6.90634 0.683215 25.1176
rtibia 32.5954
rfoot -13.8339 -0.855215
rtoes 14.2506
lfemur -12.0252 -9.05674 -2.31274
ltibia 83.3926
lfoot 12.169 -33.5696
ltoes 27.4673
1361
root 9.94264 17.3629 -17.7251 -188.508 -20.002 -174.189
lowerback 10.2471 2.10462 4.02767
upperback 4.81792 2.73096 2.98656
thorax -0.668949 1.18377 0.545407
lowerneck -10.9546 3.59536 -7.96677
upperneck 42.3124 1.7513 2.65301
head 17.1526 -1.76322 2.4632
rclavicle -6.94752e-014 -2.0276e-014
rhumerus -25.5648 -21.2985 -73.2819
rradius 18.9066
rwrist 0.444471
rhand -19.8816 12.639
rfingers 7.12502
rthumb 6.45409 -17.2427
lclavicle -6.94752e-014 -2.0276e-014
lhumerus -38.7989 16.474 75.0526
lradius 40.9424
lwrist 8.12369
lhand -22.8169 25.4845
lfingers 7.12502
lthumb 3.61992 55.4335
rfemur -6.49514 0.729 25.4783
rtibia 32.4323
rfoot -13.921 -1.07126
rtoes 14.998
lfemur -12.3917 -9.34047 -2.17582
ltibia 84.2179
lfoot 12.7182 -32.7259
ltoes 26.9872
1362
root 9.95544 17.3822 -17.7795 -188.586 -20.1806 -173.991
lowerback 10.278 1.96744 4.19396
upperback 4.91425 2.54306 3.09105
thorax -0.584538 1.08486 0.581286
lowerneck -11.2031 3.68386 -8.17492
upperneck 42.3602 1.99747 2.6591
head 17.2212 -1.69239 2.54915
rclavicle -4.23411e-014 -5.56597e-015
rhumerus -24.848 -21.2716 -73.5488
rradius 18.9309
rwrist 0.932766
rhand -20.0926 12.9147
rfingers 7.12502
rthumb 6.25041 -16.9731
lclavicle -4.23411e-014 -5.56597e-015
lhumerus -38.7704 16.8069 75.3525
lradius 39.4663
lwrist 7.79419
lhand -23.1844 25.2327
lfingers 7.12502
lthumb 3.26498 55.1874
rfemur -6.09384 0.782831 25.816
rtibia 32.0138
rfoot -13.9419 -1.33193
rtoes 15.4616
lfemur -13.0075 -9.63657 -2.04919
ltibia 85.1398
lfoot 12.639 -31.9468
ltoes 25.792
1363
root 9.96416 17.4021 -17.829 -188.464 -20.523 -174.01
lowerback 10.1203 1.86124 4.22999
upperback 4.98469 2.38787 3.08499
thorax -0.425832 1.00962 0.576619
lowerneck -11.4108 3.76162 -7.97661
upperneck 42.359 2.23429 2.39525
head 17.2676 -1.58824 2.43782
rclavicle -3.16565e-014 -1.59028e-015
rhumerus -24.2825 -21.3911 -73.7759
rradius 19.1709
rwrist 1.4578
rhand -19.9336 12.2268
rfingers 7.12502
rthumb 6.40394 -17.6564
lclavicle -3.16565e-014 -1.59028e-015
lhumerus -38.7104 16.7439 75.7748
lradius 38.1801
lwrist 7.64408
lhand -23.064 24.933
lfingers 7.12502
lthumb 3.3813 54.8859
rfemur -5.69957 0.643438 25.8948
rtibia 31.3461
rfoot -13.8158 -1.63732
rtoes 15.5158
lfemur -13.8364 -9.92657 -2.21061
ltibia 86.1524
lfoot 11.8734 -31.1083
ltoes 24.5431
